<?xml version="1.0" encoding="UTF-8"?>
<svg id="Layer_2" data-name="Layer 2" xmlns="http://www.w3.org/2000/svg" xmlns:xlink="http://www.w3.org/1999/xlink" viewBox="0 0 20 20">
  <defs>
    <style>
      .cls-1 {
        fill: url(#linear-gradient);
      }
    </style>
    <linearGradient id="linear-gradient" x1="1.63" y1="15.77" x2="15.77" y2="1.62" gradientUnits="userSpaceOnUse">
      <stop offset="0" stop-color="#2f3979"/>
      <stop offset="1" stop-color="#73c1a2"/>
    </linearGradient>
  </defs>
  <path class="cls-1" d="M9.52,19.99c-.83-.04-1.66-.19-2.46-.43-.09-.03-.19-.07-.28-.1-2.67-.88-4.93-3-6.02-5.63C.31,12.76,.06,11.61,.01,10.45,0,10.31,0,8.54,0,5.62,0,.59,0,.95,.06,.75,.19,.33,.56,.04,1.02,0c.35-.03,.58,.07,1.34,.58,.47,.32,.93,.65,1.5,1.07,.26,.2,.29,.22,.31,.21l.29-.19c.48-.32,.93-.56,1.42-.79,.72-.33,1.48-.57,2.26-.71,.56-.11,1.13-.16,1.7-.17,.95-.01,1.73,.08,2.63,.3,2.96,.74,5.45,2.84,6.69,5.65,.41,.93,.7,2.03,.79,2.94,.03,.31,.03,.36,.04,.51,0,.09,.01,.34,.01,.56,0,.65-.05,1.31-.14,1.72-.01,.07-.03,.14-.04,.22-.05,.32-.18,.82-.33,1.28-.17,.51-.31,.83-.57,1.36-.55,1.08-1.29,2.05-2.19,2.86-.37,.33-.69,.59-1.05,.84-.54,.37-1.09,.68-1.7,.95-.5,.22-1.2,.45-1.75,.57-.32,.07-.65,.13-.98,.17-.57,.07-1.15,.09-1.73,.07h0Zm-.51-4.93c.25-.05,.57-.17,.72-.28,.12-.08,.36-.31,1.72-1.68,.49-.49,.98-.98,1.47-1.46,.01,0,1.41-1.39,1.41-1.41,0-.02,1.37-1.37,1.38-1.37,0,0,.05-.04,.1-.09,.39-.41,.57-.8,.6-1.29,.02-.36-.05-.76-.18-1-.19-.36-.47-.65-.82-.85-.23-.14-.43-.19-.74-.23-.26-.03-.57,0-.79,.06-.2,.06-.5,.23-.71,.4-.04,.03-1.07,1.05-2.29,2.28l-2.23,2.23-.91-.91c-.5-.5-.93-.93-.96-.95-.32-.25-.71-.4-1.12-.43-.34-.01-.76,.08-1.02,.21-.2,.12-.39,.27-.55,.44-.09,.1-.24,.3-.24,.32,0,.03,0,.04-.05,.13-.11,.24-.18,.5-.19,.76,0,.19,0,.22,.02,.41,.04,.29,.2,.65,.43,.93,.04,.05,.81,.83,1.7,1.72,1.26,1.25,1.65,1.64,1.73,1.7,.27,.2,.57,.32,.92,.38,.15,.03,.42,.01,.61-.03h0Z"/>
</svg>