<?xml version="1.0" encoding="UTF-8"?>
<svg id="Layer_2" data-name="Layer 2" xmlns="http://www.w3.org/2000/svg" viewBox="0 0 20 20">
  <defs>
    <style>
      .cls-1 {
        fill: #257cb8;
      }
    </style>
  </defs>
  <path class="cls-1" d="M14.09,5.99h.01c.14,0,.27,.04,.37,.12h0c.08,.07,.13,.16,.14,.27h0c.01,.08,.02,.18,.02,.27,0,.04,0,.09,0,.13h0c-.15,1.57-.8,5.38-1.13,7.14-.14,.75-.41,1-.68,1.02-.58,.05-1.02-.38-1.57-.75-.88-.57-1.37-.93-2.22-1.49-.98-.65-.35-1,.21-1.58,.15-.15,2.69-2.47,2.74-2.68,0-.01,0-.03,0-.04,0-.05-.02-.1-.05-.13h0s-.08-.04-.12-.04c-.03,0-.06,0-.08,.02h0c-.09,.02-1.49,.94-4.19,2.77-.3,.23-.67,.38-1.08,.4h0c-.58-.07-1.1-.2-1.59-.38l.05,.02c-.62-.2-1.12-.31-1.08-.65,.02-.18,.27-.36,.74-.55,2.9-1.26,4.83-2.1,5.8-2.5,1.07-.57,2.3-1.03,3.6-1.33l.1-.02h0ZM9.98,0C4.46,.01,0,4.49,0,10s4.48,10,10,10,10-4.48,10-10S15.54,.01,10.02,0h-.05Z"/>
</svg>